<svg width="425" height="159" viewBox="0 0 425 159" fill="none" xmlns="http://www.w3.org/2000/svg">
<path d="M183.244 123.872C181.894 123.872 180.906 123.559 180.279 122.932C179.653 122.306 179.339 121.341 179.339 120.04V36.4458C179.339 34.5175 181.075 33.5533 184.546 33.5533H185.558C188.981 33.5533 190.692 34.5175 190.692 36.4458V114.11H226.053C226.969 114.11 227.62 114.423 228.006 115.05C228.392 115.629 228.584 116.593 228.584 117.943V120.04C228.584 121.341 228.392 122.306 228.006 122.932C227.62 123.559 226.969 123.872 226.053 123.872H183.244Z" fill="white"/>
<path d="M255.603 124.595C245.913 124.595 238.513 121.703 233.403 115.918C228.341 110.085 225.81 101.624 225.81 90.536C225.81 79.448 228.39 70.9151 233.548 64.9372C238.706 58.9111 246.058 55.898 255.603 55.898C265.052 55.898 272.284 58.887 277.297 64.8649C282.311 70.7945 284.818 79.3516 284.818 90.536C284.818 101.672 282.335 110.133 277.37 115.918C272.452 121.703 265.197 124.595 255.603 124.595ZM255.242 115.339C261.509 115.339 266.137 113.315 269.126 109.265C272.115 105.167 273.609 98.852 273.609 90.3191C273.609 81.7379 272.115 75.3985 269.126 71.3007C266.137 67.203 261.509 65.1541 255.242 65.1541C249.023 65.1541 244.443 67.203 241.502 71.3007C238.562 75.3503 237.091 81.6897 237.091 90.3191C237.091 98.9002 238.538 105.216 241.43 109.265C244.371 113.315 248.975 115.339 255.242 115.339Z" fill="white"/>
<path d="M298.314 124.089C296.483 124.089 295.157 123.872 294.337 123.438C293.518 122.956 293.108 122.233 293.108 121.269V76.1457C293.108 70.5535 292.843 66.5281 292.312 64.0694C291.782 61.5626 291.517 60.1886 291.517 59.9476C291.517 58.887 292.312 58.1397 293.903 57.7059C295.542 57.2238 297.085 56.9827 298.531 56.9827C299.688 56.9827 300.556 57.6095 301.135 58.8629C301.713 60.0681 302.219 61.7795 302.653 63.9971L303.015 65.5157C307.595 59.1039 312.56 55.898 317.911 55.898C320.37 55.898 322.226 56.356 323.479 57.272C324.733 58.1397 325.36 59.3209 325.36 60.8153C325.36 62.2616 325.094 63.8043 324.564 65.4434C324.082 67.0343 323.503 67.8297 322.829 67.8297C322.491 67.8297 321.888 67.6851 321.021 67.3958C320.249 67.0584 319.478 66.8173 318.707 66.6727C317.935 66.4799 316.947 66.3834 315.742 66.3834C313.765 66.3834 311.885 66.9619 310.101 68.119C308.366 69.276 306.896 70.5535 305.69 71.9515C304.485 73.3496 303.883 74.1209 303.883 74.2656V121.269C303.883 122.233 303.473 122.956 302.653 123.438C301.834 123.872 300.556 124.089 298.821 124.089H298.314Z" fill="white"/>
<path d="M356.79 124.595C346.136 124.595 338.205 121.823 332.999 116.279C327.84 110.687 325.261 102.154 325.261 90.6806C325.261 79.3034 327.792 70.674 332.854 64.7926C337.916 58.8629 345.364 55.898 355.199 55.898C363.973 55.898 370.577 58.7424 375.013 64.431C379.496 70.1196 381.738 78.4597 381.738 89.4513C381.738 89.9334 381.473 90.6083 380.942 91.4761C380.46 92.2956 379.858 93.0429 379.134 93.7178C378.46 94.3445 377.881 94.6579 377.399 94.6579H336.831C337.362 101.841 339.194 107.096 342.327 110.422C345.509 113.7 350.282 115.339 356.645 115.339C360.213 115.339 363.274 114.906 365.829 114.038C368.432 113.17 370.939 112.109 373.349 110.856C373.59 110.76 373.952 110.591 374.434 110.35C374.916 110.109 375.254 109.988 375.446 109.988C375.977 109.988 376.579 110.422 377.254 111.29C377.977 112.109 378.58 113.049 379.062 114.11C379.592 115.122 379.858 115.87 379.858 116.352C379.858 117.412 378.797 118.593 376.676 119.895C374.555 121.197 371.71 122.306 368.143 123.222C364.624 124.137 360.839 124.595 356.79 124.595ZM370.24 85.4018C370.24 71.9033 365.106 65.1541 354.837 65.1541C343.797 65.1541 337.795 71.9033 336.831 85.4018H370.24Z" fill="white"/>
<path d="M402.176 125.102C398.561 125.102 395.186 124.644 392.052 123.728C388.919 122.812 386.412 121.703 384.532 120.401C382.7 119.051 381.784 117.87 381.784 116.858C381.784 116.376 382.025 115.605 382.507 114.544C383.037 113.483 383.64 112.543 384.315 111.724C385.038 110.856 385.689 110.422 386.267 110.422C386.412 110.422 386.846 110.663 387.569 111.145C389.497 112.399 391.522 113.459 393.643 114.327C395.813 115.195 398.392 115.629 401.381 115.629C409.769 115.629 413.963 112.158 413.963 105.216C413.963 103.239 413.554 101.576 412.734 100.226C411.963 98.8761 410.637 97.695 408.757 96.6826C406.925 95.622 404.394 94.6096 401.164 93.6455C396.536 92.2956 392.92 90.7529 390.317 89.0174C387.762 87.2819 385.954 85.2572 384.893 82.9431C383.833 80.5809 383.303 77.7366 383.303 74.4102C383.303 70.8427 384.194 67.6369 385.978 64.7926C387.81 61.9482 390.341 59.7306 393.571 58.1397C396.849 56.5489 400.537 55.7534 404.635 55.7534C407.479 55.7534 410.203 56.0186 412.806 56.5489C415.458 57.0792 417.579 57.7782 419.17 58.6459C420.809 59.4655 421.629 60.3332 421.629 61.2492C421.629 61.9241 421.387 62.8401 420.905 63.9971C420.471 65.1059 419.917 66.0942 419.242 66.9619C418.567 67.7815 417.965 68.1913 417.434 68.1913C417.338 68.1913 416.735 67.902 415.627 67.3235C414.518 66.6968 413.096 66.1424 411.36 65.6603C409.673 65.13 407.793 64.8649 405.72 64.8649C402.441 64.8649 399.718 65.6121 397.548 67.1066C395.427 68.5528 394.366 70.5053 394.366 72.9639C394.366 75.8565 395.138 78.1705 396.68 79.906C398.223 81.6415 400.778 83.0637 404.346 84.1725C409.841 85.8598 414.036 87.5471 416.928 89.2344C419.821 90.9217 421.87 92.9947 423.075 95.4533C424.328 97.8637 424.955 101.046 424.955 104.999C424.955 108.759 423.943 112.182 421.918 115.267C419.893 118.304 417.145 120.715 413.674 122.498C410.203 124.234 406.37 125.102 402.176 125.102Z" fill="white"/>
<path d="M86.3975 89.3097C75.4318 86.7441 84.7196 85.6636 85.6104 81.8587C86.5012 78.0537 78.6576 72.9651 89.6234 75.5308C100.589 78.0964 108.757 83.2607 107.866 87.0657C106.975 90.8706 97.3633 91.8753 86.3975 89.3097Z" fill="#8265B2"/>
<path d="M59.3834 68.4556C70.3492 71.0213 61.0614 72.1017 60.1706 75.9066C59.2798 79.7116 67.1234 84.8002 56.1576 82.2345C45.1918 79.6689 37.0244 74.5046 37.9152 70.6996C38.806 66.8947 48.4177 65.89 59.3834 68.4556Z" fill="#8265B2"/>
<path d="M70.6638 96.063C67.4455 85.1073 72.9431 92.7365 76.6236 91.5909C80.3041 90.4454 80.7739 80.9588 83.9922 91.9146C87.2105 102.87 86.8358 112.68 83.1553 113.826C79.4748 114.972 73.8822 107.019 70.6638 96.063Z" fill="#8265B2"/>
<path d="M75.1172 61.7023C78.3355 72.658 72.8379 65.0289 69.1574 66.1744C65.4769 67.32 65.0071 76.8065 61.7888 65.8507C58.5705 54.895 58.9452 45.0849 62.6257 43.9394C66.3062 42.7938 71.8988 50.7465 75.1172 61.7023Z" fill="#8265B2"/>
<path d="M57.1568 85.636C64.9043 77.2459 61.114 85.9555 63.9037 88.6149C66.6935 91.2743 75.0068 86.8764 67.2593 95.2665C59.5118 103.657 50.9698 108.302 48.18 105.643C45.3903 102.984 49.4093 94.0261 57.1568 85.636Z" fill="#8265B2"/>
<path d="M88.6242 72.1293C80.8767 80.5194 84.667 71.8098 81.8773 69.1504C79.0875 66.4911 70.7743 70.889 78.5217 62.4988C86.2692 54.1087 94.8113 49.463 97.601 52.1224C100.391 54.7818 96.3717 63.7392 88.6242 72.1293Z" fill="#8265B2"/>
<path d="M69.7837 110.063C63.8285 90.3716 73.893 104.116 80.57 102.097C87.247 100.077 88.008 83.0582 93.9631 102.75C99.9183 122.441 99.3332 140.042 92.6562 142.061C85.9792 144.081 75.7388 129.755 69.7837 110.063Z" fill="white"/>
<path d="M77.5408 48.4471C83.496 68.1387 73.4315 54.3942 66.7545 56.4137C60.0775 58.4332 59.3165 75.452 53.3613 55.7605C47.4062 36.069 47.9913 18.4687 54.6683 16.4492C61.3452 14.4296 71.5856 28.7556 77.5408 48.4471Z" fill="white"/>
<path d="M45.1372 91.2193C59.1338 76.2395 52.3313 91.8315 57.4266 96.6311C62.522 101.431 77.5858 93.6205 63.5892 108.6C49.5925 123.58 34.1154 131.833 29.02 127.033C23.9246 122.234 31.1405 106.199 45.1372 91.2193Z" fill="white"/>
<path d="M102.187 67.291C88.1906 82.2708 94.9932 66.6788 89.8978 61.8791C84.8024 57.0795 69.7386 64.8898 83.7353 49.91C97.7319 34.9302 113.209 26.6775 118.304 31.4771C123.4 36.2768 116.184 52.3112 102.187 67.291Z" fill="white"/>
<path d="M49.0157 60.4113C68.9676 65.123 52.1005 66.9706 50.5189 73.7898C48.9373 80.6089 63.2401 89.8174 43.2883 85.1057C23.3365 80.394 8.44445 71.0464 10.026 64.2272C11.6076 57.4081 29.0639 55.6996 49.0157 60.4113Z" fill="white"/>
<path d="M98.3087 98.099C78.3569 93.3873 95.224 91.5397 96.8056 84.7205C98.3872 77.9014 84.0844 68.6929 104.036 73.4046C123.988 78.1164 138.88 87.464 137.298 94.2831C135.717 101.102 118.261 102.811 98.3087 98.099Z" fill="white"/>
<path d="M69.7837 110.063C63.8285 90.3716 73.893 104.116 80.57 102.097C87.247 100.077 88.008 83.0582 93.9631 102.75C99.9183 122.441 99.3332 140.042 92.6562 142.061C85.9792 144.081 75.7388 129.755 69.7837 110.063Z" fill="white"/>
<path d="M77.5408 48.4471C83.496 68.1387 73.4315 54.3942 66.7545 56.4137C60.0775 58.4332 59.3165 75.452 53.3613 55.7605C47.4062 36.069 47.9913 18.4687 54.6683 16.4492C61.3452 14.4296 71.5856 28.7556 77.5408 48.4471Z" fill="white"/>
<path d="M45.1372 91.2193C59.1338 76.2395 52.3313 91.8315 57.4266 96.6311C62.522 101.431 77.5858 93.6205 63.5892 108.6C49.5925 123.58 34.1154 131.833 29.02 127.033C23.9246 122.234 31.1405 106.199 45.1372 91.2193Z" fill="white"/>
<path d="M102.187 67.291C88.1906 82.2708 94.9932 66.6788 89.8978 61.8791C84.8024 57.0795 69.7386 64.8898 83.7353 49.91C97.7319 34.9302 113.209 26.6775 118.304 31.4771C123.4 36.2768 116.184 52.3112 102.187 67.291Z" fill="white"/>
<path d="M49.0157 60.4113C68.9676 65.123 52.1005 66.9706 50.5189 73.7898C48.9373 80.6089 63.2401 89.8174 43.2883 85.1057C23.3365 80.394 8.44445 71.0464 10.026 64.2272C11.6076 57.4081 29.0639 55.6996 49.0157 60.4113Z" fill="white"/>
<path d="M98.3087 98.099C78.3569 93.3873 95.224 91.5397 96.8056 84.7205C98.3872 77.9014 84.0844 68.6929 104.036 73.4046C123.988 78.1164 138.88 87.464 137.298 94.2831C135.717 101.102 118.261 102.811 98.3087 98.099Z" fill="white"/>
<path d="M54.1571 104.186C58.8549 84.1572 60.6909 101.093 67.4824 102.686C74.2738 104.279 83.4489 89.9248 78.7512 109.954C74.0534 129.982 64.7396 144.928 57.9481 143.335C51.1567 141.742 49.4594 124.215 54.1571 104.186Z" fill="white"/>
<path d="M91.706 54.721C87.0083 74.7497 85.1723 57.8136 78.3808 56.2209C71.5894 54.6282 62.4142 68.9821 67.112 48.9533C71.8098 28.9246 81.1236 13.9792 87.9151 15.5719C94.7065 17.1646 96.4038 34.6922 91.706 54.721Z" fill="white"/>
<path d="M42.2479 75.5379C61.862 69.5725 48.1701 79.6679 50.1799 86.3731C52.1897 93.0784 69.1401 93.8542 49.526 99.8197C29.9119 105.785 12.3822 105.185 10.3724 98.4802C8.36261 91.775 22.6337 81.5034 42.2479 75.5379Z" fill="white"/>
<path d="M103.615 83.369C84.0011 89.3345 97.693 79.239 95.6832 72.5338C93.6734 65.8286 76.723 65.0527 96.3371 59.0873C115.951 53.1218 133.481 53.7215 135.491 60.4267C137.501 67.132 123.229 77.4036 103.615 83.369Z" fill="white"/>
<path d="M61.0223 50.8055C75.9387 64.8688 60.4108 58.028 55.6291 63.1406C50.8475 68.2531 58.6228 83.3829 43.7064 69.3196C28.79 55.2563 20.5742 39.7112 25.3559 34.5986C30.1375 29.4861 46.106 36.7422 61.0223 50.8055Z" fill="white"/>
<path d="M84.8408 108.101C69.9244 94.0382 85.4523 100.879 90.234 95.7664C95.0157 90.6538 87.2403 75.5241 102.157 89.5874C117.073 103.651 125.289 119.196 120.507 124.308C115.726 129.421 99.7572 122.165 84.8408 108.101Z" fill="white"/>
<path d="M54.1571 104.186C58.8549 84.1572 60.6909 101.093 67.4824 102.686C74.2738 104.279 83.4489 89.9248 78.7512 109.954C74.0534 129.982 64.7396 144.928 57.9481 143.335C51.1567 141.742 49.4594 124.215 54.1571 104.186Z" fill="white"/>
<path d="M91.706 54.721C87.0083 74.7497 85.1723 57.8136 78.3808 56.2209C71.5894 54.6282 62.4142 68.9821 67.112 48.9533C71.8098 28.9246 81.1236 13.9792 87.9151 15.5719C94.7065 17.1646 96.4038 34.6922 91.706 54.721Z" fill="white"/>
<path d="M42.2479 75.5379C61.862 69.5725 48.1701 79.6679 50.1799 86.3731C52.1897 93.0784 69.1401 93.8542 49.526 99.8197C29.9119 105.785 12.3822 105.185 10.3724 98.4802C8.36261 91.775 22.6337 81.5034 42.2479 75.5379Z" fill="white"/>
<path d="M103.615 83.369C84.0011 89.3345 97.693 79.239 95.6832 72.5338C93.6734 65.8286 76.723 65.0527 96.3371 59.0873C115.951 53.1218 133.481 53.7215 135.491 60.4267C137.501 67.132 123.229 77.4036 103.615 83.369Z" fill="white"/>
<path d="M61.0223 50.8055C75.9387 64.8688 60.4108 58.028 55.6291 63.1406C50.8475 68.2531 58.6228 83.3829 43.7064 69.3196C28.79 55.2563 20.5742 39.7112 25.3559 34.5986C30.1375 29.4861 46.106 36.7422 61.0223 50.8055Z" fill="white"/>
<path d="M84.8408 108.101C69.9244 94.0382 85.4523 100.879 90.234 95.7664C95.0157 90.6538 87.2403 75.5241 102.157 89.5874C117.073 103.651 125.289 119.196 120.507 124.308C115.726 129.421 99.7572 122.165 84.8408 108.101Z" fill="white"/>
<path d="M86.3975 89.3097C75.4318 86.7441 84.7196 85.6636 85.6104 81.8587C86.5012 78.0537 78.6576 72.9651 89.6234 75.5308C100.589 78.0964 108.757 83.2607 107.866 87.0657C106.975 90.8706 97.3633 91.8753 86.3975 89.3097Z" fill="#553F79"/>
<path d="M59.3834 68.4556C70.3492 71.0213 61.0614 72.1017 60.1706 75.9066C59.2798 79.7116 67.1234 84.8002 56.1576 82.2345C45.1918 79.6689 37.0244 74.5046 37.9152 70.6996C38.806 66.8947 48.4177 65.89 59.3834 68.4556Z" fill="#553F79"/>
<path d="M70.6638 96.063C67.4455 85.1073 72.9431 92.7365 76.6236 91.5909C80.3041 90.4454 80.7739 80.9588 83.9922 91.9146C87.2105 102.87 86.8358 112.68 83.1553 113.826C79.4748 114.972 73.8822 107.019 70.6638 96.063Z" fill="#553F79"/>
<path d="M75.1172 61.7023C78.3355 72.658 72.8379 65.0289 69.1574 66.1744C65.4769 67.32 65.0071 76.8065 61.7888 65.8507C58.5705 54.895 58.9452 45.0849 62.6257 43.9394C66.3062 42.7938 71.8988 50.7465 75.1172 61.7023Z" fill="#553F79"/>
<path d="M57.1568 85.636C64.9043 77.2459 61.114 85.9555 63.9037 88.6149C66.6935 91.2743 75.0068 86.8764 67.2593 95.2665C59.5118 103.657 50.9698 108.302 48.18 105.643C45.3903 102.984 49.4093 94.0261 57.1568 85.636Z" fill="#553F79"/>
<path d="M88.6242 72.1293C80.8767 80.5194 84.667 71.8098 81.8773 69.1504C79.0875 66.4911 70.7743 70.889 78.5217 62.4988C86.2692 54.1087 94.8113 49.463 97.601 52.1224C100.391 54.7818 96.3717 63.7392 88.6242 72.1293Z" fill="#553F79"/>
<path d="M79.9197 95.0239C71.7059 87.3191 80.2896 91.0273 82.9635 88.1775C85.6374 85.3277 81.389 76.9991 89.6028 84.7039C97.8167 92.4087 102.308 100.965 99.6337 103.815C96.9598 106.664 88.1335 102.729 79.9197 95.0239Z" fill="#553F79"/>
<path d="M66.9518 63.4567C75.1657 71.1615 66.582 67.4532 63.908 70.303C61.2341 73.1528 65.4826 81.4814 57.2687 73.7766C49.0549 66.0719 44.5639 57.5157 47.2378 54.6659C49.9117 51.8161 58.738 55.7519 66.9518 63.4567Z" fill="#553F79"/>
<path d="M62.9172 93.0056C65.608 81.9085 66.5544 91.2643 70.3146 92.1125C74.0748 92.9607 79.2249 84.98 76.5341 96.0771C73.8434 107.174 68.6139 115.483 64.8537 114.634C61.0935 113.786 60.2265 104.103 62.9172 93.0056Z" fill="#553F79"/>
<path d="M83.9543 65.475C81.2636 76.5721 80.3171 67.2162 76.5569 66.368C72.7967 65.5199 67.6467 73.5006 70.3374 62.4035C73.0281 51.3063 78.2576 42.9979 82.0179 43.8461C85.7781 44.6943 86.645 54.3778 83.9543 65.475Z" fill="#553F79"/>
<path d="M56.4333 77.222C67.3379 73.8297 59.7006 79.4773 60.7869 83.1753C61.8732 86.8732 71.2717 87.2211 60.3671 90.6135C49.4625 94.0058 39.742 93.7581 38.6557 90.0601C37.5695 86.3621 45.5288 80.6143 56.4333 77.222Z" fill="#553F79"/>
<path d="M90.4382 81.2586C79.5337 84.6509 87.1709 79.0033 86.0847 75.3053C84.9984 71.6073 75.5999 71.2594 86.5045 67.8671C97.409 64.4747 107.13 64.7225 108.216 68.4205C109.302 72.1184 101.343 77.8662 90.4382 81.2586Z" fill="#553F79"/>
</svg>
