<svg viewBox="0 0 148 159" fill="none" xmlns="http://www.w3.org/2000/svg" preserveAspectRatio="none">
<path d="M86.3975 89.3097C75.4317 86.7441 84.7196 85.6636 85.6103 81.8587C86.5011 78.0537 78.6576 72.9651 89.6234 75.5308C100.589 78.0964 108.757 83.2607 107.866 87.0657C106.975 90.8706 97.3633 91.8753 86.3975 89.3097Z" fill="#8265B2"/>
<path d="M59.3834 68.4556C70.3492 71.0213 61.0614 72.1017 60.1706 75.9066C59.2798 79.7116 67.1234 84.8002 56.1576 82.2345C45.1918 79.6689 37.0244 74.5046 37.9152 70.6996C38.806 66.8947 48.4176 65.89 59.3834 68.4556Z" fill="#8265B2"/>
<path d="M70.6638 96.063C67.4455 85.1073 72.9431 92.7365 76.6236 91.5909C80.3041 90.4454 80.7738 80.9588 83.9921 91.9146C87.2105 102.87 86.8358 112.68 83.1553 113.826C79.4747 114.972 73.8821 107.019 70.6638 96.063Z" fill="#8265B2"/>
<path d="M75.1171 61.7023C78.3354 72.658 72.8379 65.0289 69.1574 66.1744C65.4768 67.32 65.0071 76.8065 61.7888 65.8507C58.5705 54.895 58.9452 45.0849 62.6257 43.9394C66.3062 42.7938 71.8988 50.7465 75.1171 61.7023Z" fill="#8265B2"/>
<path d="M57.1568 85.636C64.9042 77.2459 61.114 85.9555 63.9037 88.6149C66.6934 91.2743 75.0067 86.8764 67.2593 95.2665C59.5118 103.657 50.9697 108.302 48.18 105.643C45.3903 102.984 49.4093 94.0261 57.1568 85.636Z" fill="#8265B2"/>
<path d="M88.6242 72.1293C80.8767 80.5194 84.667 71.8098 81.8772 69.1504C79.0875 66.4911 70.7742 70.889 78.5217 62.4988C86.2691 54.1087 94.8112 49.463 97.601 52.1224C100.391 54.7818 96.3716 63.7392 88.6242 72.1293Z" fill="#8265B2"/>
<path d="M69.7837 110.063C63.8285 90.3716 73.893 104.116 80.57 102.097C87.247 100.077 88.008 83.0582 93.9632 102.75C99.9183 122.441 99.3332 140.042 92.6562 142.061C85.9793 144.081 75.7389 129.755 69.7837 110.063Z" fill="white"/>
<path d="M77.5408 48.4471C83.496 68.1387 73.4315 54.3942 66.7545 56.4137C60.0775 58.4333 59.3165 75.452 53.3614 55.7605C47.4062 36.069 47.9913 18.4687 54.6683 16.4492C61.3453 14.4296 71.5857 28.7556 77.5408 48.4471Z" fill="white"/>
<path d="M45.1372 91.2193C59.1338 76.2395 52.3313 91.8315 57.4267 96.6311C62.522 101.431 77.5859 93.6205 63.5892 108.6C49.5926 123.58 34.1154 131.833 29.02 127.033C23.9247 122.234 31.1406 106.199 45.1372 91.2193Z" fill="white"/>
<path d="M102.187 67.291C88.1907 82.2708 94.9932 66.6788 89.8978 61.8792C84.8025 57.0795 69.7387 64.8898 83.7353 49.91C97.7319 34.9302 113.209 26.6775 118.304 31.4771C123.4 36.2768 116.184 52.3112 102.187 67.291Z" fill="white"/>
<path d="M49.0158 60.4113C68.9676 65.123 52.1005 66.9706 50.5189 73.7898C48.9373 80.6089 63.2401 89.8174 43.2883 85.1057C23.3365 80.394 8.44448 71.0464 10.0261 64.2272C11.6077 57.4081 29.064 55.6996 49.0158 60.4113Z" fill="white"/>
<path d="M98.3087 98.099C78.3569 93.3873 95.224 91.5397 96.8056 84.7206C98.3872 77.9014 84.0844 68.6929 104.036 73.4046C123.988 78.1164 138.88 87.464 137.298 94.2831C135.717 101.102 118.261 102.811 98.3087 98.099Z" fill="white"/>
<path d="M69.7837 110.063C63.8285 90.3716 73.893 104.116 80.57 102.097C87.247 100.077 88.008 83.0582 93.9632 102.75C99.9183 122.441 99.3332 140.042 92.6562 142.061C85.9793 144.081 75.7389 129.755 69.7837 110.063Z" fill="#8265B2"/>
<path d="M77.5408 48.4471C83.496 68.1387 73.4315 54.3942 66.7545 56.4137C60.0775 58.4333 59.3165 75.452 53.3614 55.7605C47.4062 36.069 47.9913 18.4687 54.6683 16.4492C61.3453 14.4296 71.5857 28.7556 77.5408 48.4471Z" fill="#8265B2"/>
<path d="M45.1372 91.2193C59.1338 76.2395 52.3313 91.8315 57.4267 96.6311C62.522 101.431 77.5859 93.6205 63.5892 108.6C49.5926 123.58 34.1154 131.833 29.02 127.033C23.9247 122.234 31.1406 106.199 45.1372 91.2193Z" fill="#8265B2"/>
<path d="M102.187 67.291C88.1907 82.2708 94.9932 66.6788 89.8978 61.8792C84.8025 57.0795 69.7387 64.8898 83.7353 49.91C97.7319 34.9302 113.209 26.6775 118.304 31.4771C123.4 36.2768 116.184 52.3112 102.187 67.291Z" fill="#8265B2"/>
<path d="M49.0158 60.4113C68.9676 65.123 52.1005 66.9706 50.5189 73.7898C48.9373 80.6089 63.2401 89.8174 43.2883 85.1057C23.3365 80.394 8.44448 71.0464 10.0261 64.2272C11.6077 57.4081 29.064 55.6996 49.0158 60.4113Z" fill="#8265B2"/>
<path d="M98.3087 98.099C78.3569 93.3873 95.224 91.5397 96.8056 84.7206C98.3872 77.9014 84.0844 68.6929 104.036 73.4046C123.988 78.1164 138.88 87.464 137.298 94.2831C135.717 101.102 118.261 102.811 98.3087 98.099Z" fill="#8265B2"/>
<path d="M54.1571 104.186C58.8549 84.1572 60.6909 101.093 67.4824 102.686C74.2738 104.279 83.4489 89.9248 78.7512 109.954C74.0534 129.982 64.7396 144.928 57.9481 143.335C51.1567 141.742 49.4594 124.215 54.1571 104.186Z" fill="white"/>
<path d="M91.706 54.721C87.0083 74.7497 85.1723 57.8136 78.3808 56.2209C71.5894 54.6282 62.4142 68.9821 67.112 48.9534C71.8098 28.9246 81.1236 13.9792 87.9151 15.5719C94.7065 17.1646 96.4038 34.6922 91.706 54.721Z" fill="white"/>
<path d="M42.2479 75.5379C61.862 69.5725 48.1701 79.6679 50.1799 86.3732C52.1897 93.0784 69.1401 93.8542 49.526 99.8197C29.9119 105.785 12.3822 105.185 10.3724 98.4802C8.36261 91.775 22.6337 81.5034 42.2479 75.5379Z" fill="white"/>
<path d="M103.615 83.369C84.0011 89.3345 97.693 79.239 95.6832 72.5338C93.6734 65.8286 76.723 65.0527 96.3371 59.0873C115.951 53.1218 133.481 53.7215 135.491 60.4268C137.501 67.132 123.229 77.4036 103.615 83.369Z" fill="white"/>
<path d="M61.0223 50.8055C75.9387 64.8688 60.4108 58.0281 55.6291 63.1406C50.8475 68.2531 58.6228 83.3829 43.7064 69.3196C28.79 55.2563 20.5742 39.7112 25.3559 34.5987C30.1375 29.4861 46.106 36.7422 61.0223 50.8055Z" fill="white"/>
<path d="M84.8408 108.102C69.9244 94.0382 85.4523 100.879 90.234 95.7664C95.0157 90.6539 87.2403 75.5241 102.157 89.5874C117.073 103.651 125.289 119.196 120.507 124.308C115.726 129.421 99.7572 122.165 84.8408 108.102Z" fill="white"/>
<path d="M54.1571 104.186C58.8549 84.1572 60.6909 101.093 67.4824 102.686C74.2738 104.279 83.4489 89.9248 78.7512 109.954C74.0534 129.982 64.7396 144.928 57.9481 143.335C51.1567 141.742 49.4594 124.215 54.1571 104.186Z" fill="#8265B2"/>
<path d="M91.706 54.721C87.0083 74.7497 85.1723 57.8136 78.3808 56.2209C71.5894 54.6282 62.4142 68.9821 67.112 48.9534C71.8098 28.9246 81.1236 13.9792 87.9151 15.5719C94.7065 17.1646 96.4038 34.6922 91.706 54.721Z" fill="#8265B2"/>
<path d="M42.2479 75.5379C61.862 69.5725 48.1701 79.6679 50.1799 86.3732C52.1897 93.0784 69.1401 93.8542 49.526 99.8197C29.9119 105.785 12.3822 105.185 10.3724 98.4802C8.36261 91.775 22.6337 81.5034 42.2479 75.5379Z" fill="#8265B2"/>
<path d="M103.615 83.369C84.0011 89.3345 97.693 79.239 95.6832 72.5338C93.6734 65.8286 76.723 65.0527 96.3371 59.0873C115.951 53.1218 133.481 53.7215 135.491 60.4268C137.501 67.132 123.229 77.4036 103.615 83.369Z" fill="#8265B2"/>
<path d="M61.0223 50.8055C75.9387 64.8688 60.4108 58.0281 55.6291 63.1406C50.8475 68.2531 58.6228 83.3829 43.7064 69.3196C28.79 55.2563 20.5742 39.7112 25.3559 34.5987C30.1375 29.4861 46.106 36.7422 61.0223 50.8055Z" fill="#8265B2"/>
<path d="M84.8408 108.102C69.9244 94.0382 85.4523 100.879 90.234 95.7664C95.0157 90.6539 87.2403 75.5241 102.157 89.5874C117.073 103.651 125.289 119.196 120.507 124.308C115.726 129.421 99.7572 122.165 84.8408 108.102Z" fill="#8265B2"/>
<path d="M86.3975 89.3097C75.4317 86.7441 84.7196 85.6636 85.6103 81.8587C86.5011 78.0537 78.6576 72.9651 89.6234 75.5308C100.589 78.0964 108.757 83.2607 107.866 87.0657C106.975 90.8706 97.3633 91.8753 86.3975 89.3097Z" fill="#553F79"/>
<path d="M59.3834 68.4556C70.3492 71.0213 61.0614 72.1017 60.1706 75.9066C59.2798 79.7116 67.1234 84.8002 56.1576 82.2345C45.1918 79.6689 37.0244 74.5046 37.9152 70.6996C38.806 66.8947 48.4176 65.89 59.3834 68.4556Z" fill="#553F79"/>
<path d="M70.6638 96.063C67.4455 85.1073 72.9431 92.7365 76.6236 91.5909C80.3041 90.4454 80.7738 80.9588 83.9921 91.9146C87.2105 102.87 86.8358 112.68 83.1553 113.826C79.4747 114.972 73.8821 107.019 70.6638 96.063Z" fill="#553F79"/>
<path d="M75.1171 61.7023C78.3354 72.658 72.8379 65.0289 69.1574 66.1744C65.4768 67.32 65.0071 76.8065 61.7888 65.8507C58.5705 54.895 58.9452 45.0849 62.6257 43.9394C66.3062 42.7938 71.8988 50.7465 75.1171 61.7023Z" fill="#553F79"/>
<path d="M57.1568 85.636C64.9042 77.2459 61.114 85.9555 63.9037 88.6149C66.6934 91.2743 75.0067 86.8764 67.2593 95.2665C59.5118 103.657 50.9697 108.302 48.18 105.643C45.3903 102.984 49.4093 94.0261 57.1568 85.636Z" fill="#553F79"/>
<path d="M88.6242 72.1293C80.8767 80.5194 84.667 71.8098 81.8772 69.1504C79.0875 66.4911 70.7742 70.889 78.5217 62.4988C86.2691 54.1087 94.8112 49.463 97.601 52.1224C100.391 54.7818 96.3716 63.7392 88.6242 72.1293Z" fill="#553F79"/>
<path d="M79.9197 95.0239C71.7059 87.3191 80.2896 91.0273 82.9635 88.1775C85.6374 85.3278 81.389 76.9991 89.6028 84.7039C97.8167 92.4087 102.308 100.965 99.6337 103.815C96.9598 106.664 88.1335 102.729 79.9197 95.0239Z" fill="#553F79"/>
<path d="M66.9518 63.4567C75.1657 71.1615 66.582 67.4533 63.908 70.303C61.2341 73.1528 65.4826 81.4815 57.2687 73.7767C49.0549 66.0719 44.5639 57.5157 47.2378 54.6659C49.9117 51.8162 58.738 55.7519 66.9518 63.4567Z" fill="#553F79"/>
<path d="M62.9172 93.0056C65.608 81.9085 66.5544 91.2644 70.3146 92.1125C74.0748 92.9607 79.2249 84.98 76.5341 96.0771C73.8434 107.174 68.6139 115.483 64.8537 114.634C61.0935 113.786 60.2265 104.103 62.9172 93.0056Z" fill="#553F79"/>
<path d="M83.9543 65.475C81.2636 76.5721 80.3171 67.2163 76.5569 66.3681C72.7967 65.5199 67.6467 73.5006 70.3374 62.4035C73.0281 51.3064 78.2576 42.998 82.0178 43.8461C85.7781 44.6943 86.645 54.3779 83.9543 65.475Z" fill="#553F79"/>
<path d="M56.4333 77.222C67.3379 73.8297 59.7006 79.4773 60.7869 83.1753C61.8732 86.8732 71.2717 87.2212 60.3671 90.6135C49.4625 94.0058 39.742 93.7581 38.6557 90.0601C37.5695 86.3622 45.5288 80.6144 56.4333 77.222Z" fill="#553F79"/>
<path d="M90.4382 81.2586C79.5337 84.6509 87.1709 79.0033 86.0847 75.3053C84.9984 71.6074 75.5999 71.2594 86.5045 67.8671C97.409 64.4748 107.13 64.7225 108.216 68.4205C109.302 72.1184 101.343 77.8663 90.4382 81.2586Z" fill="#553F79"/>
</svg>
